<?xml version="1.0" encoding="UTF-8" standalone="no"?>
<svg
   xmlns:dc="http://purl.org/dc/elements/1.1/"
   xmlns:cc="http://creativecommons.org/ns#"
   xmlns:rdf="http://www.w3.org/1999/02/22-rdf-syntax-ns#"
   xmlns:svg="http://www.w3.org/2000/svg"
   xmlns="http://www.w3.org/2000/svg"
   xmlns:xlink="http://www.w3.org/1999/xlink"
   id="svg8"
   version="1.1"
   viewBox="0 0 389.13883 296.57178"
   height="296.57178mm"
   width="389.13882mm">
  <defs
     id="defs2">
    <style
       id="style4920">* { opacity: 90%;} .cls-1{fill:#1b3c59;}.cls-2,.cls-21,.cls-4{opacity:0.25;}.cls-10,.cls-11,.cls-12,.cls-13,.cls-14,.cls-15,.cls-16,.cls-17,.cls-18,.cls-19,.cls-2,.cls-20,.cls-21,.cls-22,.cls-23,.cls-3,.cls-33,.cls-34,.cls-4,.cls-40,.cls-5,.cls-6,.cls-7,.cls-8,.cls-9{isolation:isolate;}.cls-2{fill:url(#Gradiente_sem_nome_3);}.cls-11,.cls-12,.cls-15,.cls-16,.cls-21,.cls-26,.cls-27,.cls-3,.cls-6,.cls-7{fill:none;}.cls-11,.cls-12,.cls-16,.cls-21,.cls-3,.cls-6{stroke:#000;}.cls-3{stroke-width:1.44px;}.cls-11,.cls-12,.cls-3{opacity:0.2;}.cls-10,.cls-13,.cls-14,.cls-19,.cls-20,.cls-5,.cls-8,.cls-9{opacity:0.1;}.cls-5{fill:url(#Gradiente_sem_nome_13);}.cls-11,.cls-21,.cls-6{stroke-width:1.5px;}.cls-16,.cls-6{opacity:0.3;}.cls-15,.cls-7{stroke:#fff;opacity:0.05;}.cls-7{stroke-width:1.6px;}.cls-8{fill:url(#Gradiente_sem_nome_13-2);}.cls-9{fill:url(#Gradiente_sem_nome_7);}.cls-10{fill:url(#Gradiente_sem_nome_7-2);}.cls-12,.cls-15,.cls-16{stroke-width:1.2px;}.cls-13{fill:url(#Gradiente_sem_nome_13-3);}.cls-14{fill:url(#Gradiente_sem_nome_13-4);}.cls-17,.cls-18{opacity:0.08;}.cls-17{fill:url(#Gradiente_sem_nome_11);}.cls-18{fill:url(#Gradiente_sem_nome_11-2);}.cls-19{fill:url(#Gradiente_sem_nome_13-5);}.cls-20{fill:url(#Gradiente_sem_nome_13-6);}.cls-22,.cls-23{opacity:0.06;}.cls-22{fill:url(#Gradiente_sem_nome_15);}.cls-23{fill:url(#Gradiente_sem_nome_15-2);}.cls-24{fill:#f2f2f0;}.cls-25{fill:#eee;}.cls-26,.cls-27{stroke:#f2f2f0;stroke-miterlimit:10;stroke-width:6px;}.cls-27{stroke-linecap:round;}.cls-28,.cls-30,.cls-31,.cls-34,.cls-35,.cls-40{fill:#fff;}.cls-29{fill:#c8c8c8;}.cls-30{fill-rule:evenodd;}.cls-31{font-size:8.03px;font-family:Verdana;letter-spacing:-0.02em;}.cls-32{letter-spacing:-0.04em;}.cls-34{font-size:18.48px;}.cls-34,.cls-40{font-family:BitstreamVeraSans-Bold, Bitstream Vera Sans;font-weight:700;}.cls-35{font-size:35.82px;font-family:Montserrat-Regular, Montserrat;}.cls-36{letter-spacing:-0.05em;}.cls-37{letter-spacing:-0.03em;}.cls-38{letter-spacing:-0.01em;}.cls-39{letter-spacing:-0.02em;}.cls-40{font-size:13.24px;}.cls-41{fill:#fdfdfd;}.cls-42{fill:#d4d4d4;}</style>
    <radialGradient
       id="Gradiente_sem_nome_3"
       cx="888.26001"
       cy="25056.84"
       r="135.38"
       gradientTransform="matrix(1,0,0,-0.34,-5.9,8719.69)"
       gradientUnits="userSpaceOnUse">
      <stop
         offset="0"
         stop-opacity="0.44"
         id="stop4922" />
      <stop
         offset="1"
         id="stop4924" />
    </radialGradient>
    <radialGradient
       id="Gradiente_sem_nome_13"
       cx="10447.73"
       cy="8162.6602"
       r="122.63"
       gradientTransform="matrix(-1.08,-1.43,-0.96,0.73,19597.64,9546.66)"
       gradientUnits="userSpaceOnUse">
      <stop
         offset="0"
         id="stop4927" />
      <stop
         offset="0.5"
         stop-opacity="0.61"
         id="stop4929" />
      <stop
         offset="1"
         stop-opacity="0"
         id="stop4931" />
    </radialGradient>
    <radialGradient
       id="Gradiente_sem_nome_13-2"
       cx="6825.8101"
       cy="1037.27"
       r="122.63"
       gradientTransform="matrix(1.08,-1.43,0.96,0.73,-7087.13,9546.66)"
       xlink:href="#Gradiente_sem_nome_13" />
    <radialGradient
       id="Gradiente_sem_nome_7"
       cx="2978.5901"
       cy="19721.279"
       r="171.03999"
       gradientTransform="matrix(0.94,-0.35,-0.22,-0.58,2052.76,12687.4)"
       gradientUnits="userSpaceOnUse">
      <stop
         offset="0"
         id="stop4935" />
      <stop
         offset="1"
         stop-opacity="0"
         id="stop4937" />
    </radialGradient>
    <radialGradient
       id="Gradiente_sem_nome_7-2"
       cx="13047.03"
       cy="13642.88"
       r="171.03999"
       gradientTransform="matrix(-0.94,-0.35,0.22,-0.58,10457.21,12687.4)"
       xlink:href="#Gradiente_sem_nome_7" />
    <radialGradient
       id="Gradiente_sem_nome_13-3"
       cx="3202.0801"
       cy="4034.1899"
       r="122.51"
       gradientTransform="matrix(0.6,2.37,1.09,-0.28,-5802.68,-5742.5)"
       xlink:href="#Gradiente_sem_nome_13" />
    <radialGradient
       id="Gradiente_sem_nome_13-4"
       cx="4287.4102"
       cy="13256.72"
       r="122.51"
       gradientTransform="matrix(-0.6,2.37,-1.09,-0.28,18312.28,-5742.5)"
       xlink:href="#Gradiente_sem_nome_13" />
    <radialGradient
       id="Gradiente_sem_nome_11"
       cx="2523.6201"
       cy="2601.9399"
       r="317.78"
       gradientTransform="matrix(1.14,0,0,1.3,-661.51,-2909.24)"
       gradientUnits="userSpaceOnUse">
      <stop
         offset="0"
         id="stop4943" />
      <stop
         offset="0.69"
         id="stop4945" />
      <stop
         offset="1"
         stop-opacity="0"
         id="stop4947" />
    </radialGradient>
    <radialGradient
       id="Gradiente_sem_nome_11-2"
       cx="11461.96"
       cy="2601.9399"
       r="317.78"
       gradientTransform="matrix(-1.14,0,0,1.3,15208.09,-2909.24)"
       xlink:href="#Gradiente_sem_nome_11" />
    <radialGradient
       id="Gradiente_sem_nome_13-5"
       cx="10348.65"
       cy="7967.75"
       r="122.63"
       gradientTransform="matrix(-1.08,-1.43,-0.96,0.73,20614.47,9546.66)"
       xlink:href="#Gradiente_sem_nome_13" />
    <radialGradient
       id="Gradiente_sem_nome_13-6"
       cx="6924.8901"
       cy="1232.1801"
       r="122.63"
       gradientTransform="matrix(1.08,-1.43,0.96,0.73,-6070.3,9546.66)"
       xlink:href="#Gradiente_sem_nome_13" />
    <radialGradient
       id="Gradiente_sem_nome_15"
       cx="1700.0601"
       cy="4986.4199"
       r="122.51"
       gradientTransform="matrix(0.78,1.8,1.21,-0.53,-5438.72,544.89)"
       gradientUnits="userSpaceOnUse">
      <stop
         offset="0"
         id="stop4953" />
      <stop
         offset="0.58"
         stop-opacity="0.61"
         id="stop4955" />
      <stop
         offset="1"
         stop-opacity="0"
         id="stop4957" />
    </radialGradient>
    <radialGradient
       id="Gradiente_sem_nome_15-2"
       cx="3772.3701"
       cy="12060.39"
       r="122.51"
       gradientTransform="matrix(-0.78,1.8,-1.21,-0.53,19982.89,544.89)"
       xlink:href="#Gradiente_sem_nome_15" />
    <style
       id="style4920-7">.cls-1{fill:#1b3c59;}.cls-2,.cls-21,.cls-4{opacity:0.25;}.cls-10,.cls-11,.cls-12,.cls-13,.cls-14,.cls-15,.cls-16,.cls-17,.cls-18,.cls-19,.cls-2,.cls-20,.cls-21,.cls-22,.cls-23,.cls-3,.cls-33,.cls-34,.cls-4,.cls-40,.cls-5,.cls-6,.cls-7,.cls-8,.cls-9{isolation:isolate;}.cls-2{fill:url(#Gradiente_sem_nome_3);}.cls-11,.cls-12,.cls-15,.cls-16,.cls-21,.cls-26,.cls-27,.cls-3,.cls-6,.cls-7{fill:none;}.cls-11,.cls-12,.cls-16,.cls-21,.cls-3,.cls-6{stroke:#000;}.cls-3{stroke-width:1.44px;}.cls-11,.cls-12,.cls-3{opacity:0.2;}.cls-10,.cls-13,.cls-14,.cls-19,.cls-20,.cls-5,.cls-8,.cls-9{opacity:0.1;}.cls-5{fill:url(#Gradiente_sem_nome_13);}.cls-11,.cls-21,.cls-6{stroke-width:1.5px;}.cls-16,.cls-6{opacity:0.3;}.cls-15,.cls-7{stroke:#fff;opacity:0.05;}.cls-7{stroke-width:1.6px;}.cls-8{fill:url(#Gradiente_sem_nome_13-2);}.cls-9{fill:url(#Gradiente_sem_nome_7);}.cls-10{fill:url(#Gradiente_sem_nome_7-2);}.cls-12,.cls-15,.cls-16{stroke-width:1.2px;}.cls-13{fill:url(#Gradiente_sem_nome_13-3);}.cls-14{fill:url(#Gradiente_sem_nome_13-4);}.cls-17,.cls-18{opacity:0.08;}.cls-17{fill:url(#Gradiente_sem_nome_11);}.cls-18{fill:url(#Gradiente_sem_nome_11-2);}.cls-19{fill:url(#Gradiente_sem_nome_13-5);}.cls-20{fill:url(#Gradiente_sem_nome_13-6);}.cls-22,.cls-23{opacity:0.06;}.cls-22{fill:url(#Gradiente_sem_nome_15);}.cls-23{fill:url(#Gradiente_sem_nome_15-2);}.cls-24{fill:#f2f2f0;}.cls-25{fill:#eee;}.cls-26,.cls-27{stroke:#f2f2f0;stroke-miterlimit:10;stroke-width:6px;}.cls-27{stroke-linecap:round;}.cls-28,.cls-30,.cls-31,.cls-34,.cls-35,.cls-40{fill:#fff;}.cls-29{fill:#c8c8c8;}.cls-30{fill-rule:evenodd;}.cls-31{font-size:8.03px;font-family:Verdana;letter-spacing:-0.02em;}.cls-32{letter-spacing:-0.04em;}.cls-34{font-size:18.48px;}.cls-34,.cls-40{font-family:BitstreamVeraSans-Bold, Bitstream Vera Sans;font-weight:700;}.cls-35{font-size:35.82px;font-family:Montserrat-Regular, Montserrat;}.cls-36{letter-spacing:-0.05em;}.cls-37{letter-spacing:-0.03em;}.cls-38{letter-spacing:-0.01em;}.cls-39{letter-spacing:-0.02em;}.cls-40{font-size:13.24px;}.cls-41{fill:#fdfdfd;}.cls-42{fill:#d4d4d4;}</style>
    <radialGradient
       id="Gradiente_sem_nome_3-0"
       cx="888.26001"
       cy="25056.84"
       r="135.38"
       gradientTransform="matrix(1,0,0,-0.34,-5.9,8719.69)"
       gradientUnits="userSpaceOnUse">
      <stop
         offset="0"
         stop-opacity="0.44"
         id="stop4922-9" />
      <stop
         offset="1"
         id="stop4924-3" />
    </radialGradient>
    <radialGradient
       id="Gradiente_sem_nome_13-60"
       cx="10447.73"
       cy="8162.6602"
       r="122.63"
       gradientTransform="matrix(-1.08,-1.43,-0.96,0.73,19597.64,9546.66)"
       gradientUnits="userSpaceOnUse">
      <stop
         offset="0"
         id="stop4927-6" />
      <stop
         offset="0.5"
         stop-opacity="0.61"
         id="stop4929-2" />
      <stop
         offset="1"
         stop-opacity="0"
         id="stop4931-6" />
    </radialGradient>
    <radialGradient
       id="Gradiente_sem_nome_13-2-1"
       cx="6825.8101"
       cy="1037.27"
       r="122.63"
       gradientTransform="matrix(1.08,-1.43,0.96,0.73,-7087.13,9546.66)"
       xlink:href="#Gradiente_sem_nome_13-60" />
    <radialGradient
       id="Gradiente_sem_nome_7-8"
       cx="2978.5901"
       cy="19721.279"
       r="171.03999"
       gradientTransform="matrix(0.94,-0.35,-0.22,-0.58,2052.76,12687.4)"
       gradientUnits="userSpaceOnUse">
      <stop
         offset="0"
         id="stop4935-7" />
      <stop
         offset="1"
         stop-opacity="0"
         id="stop4937-9" />
    </radialGradient>
    <radialGradient
       id="Gradiente_sem_nome_7-2-2"
       cx="13047.03"
       cy="13642.88"
       r="171.03999"
       gradientTransform="matrix(-0.94,-0.35,0.22,-0.58,10457.21,12687.4)"
       xlink:href="#Gradiente_sem_nome_7-8" />
    <radialGradient
       id="Gradiente_sem_nome_13-3-0"
       cx="3202.0801"
       cy="4034.1899"
       r="122.51"
       gradientTransform="matrix(0.6,2.37,1.09,-0.28,-5802.68,-5742.5)"
       xlink:href="#Gradiente_sem_nome_13-60" />
    <radialGradient
       id="Gradiente_sem_nome_13-4-2"
       cx="4287.4102"
       cy="13256.72"
       r="122.51"
       gradientTransform="matrix(-0.6,2.37,-1.09,-0.28,18312.28,-5742.5)"
       xlink:href="#Gradiente_sem_nome_13-60" />
    <radialGradient
       id="Gradiente_sem_nome_11-3"
       cx="2523.6201"
       cy="2601.9399"
       r="317.78"
       gradientTransform="matrix(1.14,0,0,1.3,-661.51,-2909.24)"
       gradientUnits="userSpaceOnUse">
      <stop
         offset="0"
         id="stop4943-7" />
      <stop
         offset="0.69"
         id="stop4945-5" />
      <stop
         offset="1"
         stop-opacity="0"
         id="stop4947-9" />
    </radialGradient>
    <radialGradient
       id="Gradiente_sem_nome_11-2-2"
       cx="11461.96"
       cy="2601.9399"
       r="317.78"
       gradientTransform="matrix(-1.14,0,0,1.3,15208.09,-2909.24)"
       xlink:href="#Gradiente_sem_nome_11-3" />
    <radialGradient
       id="Gradiente_sem_nome_13-5-2"
       cx="10348.65"
       cy="7967.75"
       r="122.63"
       gradientTransform="matrix(-1.08,-1.43,-0.96,0.73,20614.47,9546.66)"
       xlink:href="#Gradiente_sem_nome_13-60" />
    <radialGradient
       id="Gradiente_sem_nome_13-6-8"
       cx="6924.8901"
       cy="1232.1801"
       r="122.63"
       gradientTransform="matrix(1.08,-1.43,0.96,0.73,-6070.3,9546.66)"
       xlink:href="#Gradiente_sem_nome_13-60" />
    <radialGradient
       id="Gradiente_sem_nome_15-9"
       cx="1700.0601"
       cy="4986.4199"
       r="122.51"
       gradientTransform="matrix(0.78,1.8,1.21,-0.53,-5438.72,544.89)"
       gradientUnits="userSpaceOnUse">
      <stop
         offset="0"
         id="stop4953-7" />
      <stop
         offset="0.58"
         stop-opacity="0.61"
         id="stop4955-3" />
      <stop
         offset="1"
         stop-opacity="0"
         id="stop4957-6" />
    </radialGradient>
    <radialGradient
       id="Gradiente_sem_nome_15-2-1"
       cx="3772.3701"
       cy="12060.39"
       r="122.51"
       gradientTransform="matrix(-0.78,1.8,-1.21,-0.53,19982.89,544.89)"
       xlink:href="#Gradiente_sem_nome_15-9" />
    <style
       id="style1603">.cls-1{fill:#fff;}.cls-2{fill:#f2f2f2;}</style>
    <style
       id="style1740">.cls-1,.cls-2{fill:#fff;}.cls-1,.cls-3{stroke:#fff;}.cls-1,.cls-2,.cls-3{stroke-miterlimit:10;stroke-width:2px;}.cls-2{stroke:#f2f2f2;}.cls-3{fill:#fff;}</style>
    <style
       id="style2">.cls-1{fill:#ccc;}.cls-2{fill:#e6e6e6;}.cls-3{fill:#f89673;}.cls-4,.cls-5,.cls-6{fill:none;stroke-miterlimit:10;}.cls-4{stroke:#f89673;stroke-width:9px;}.cls-5{stroke:#ccc;}.cls-5,.cls-6{stroke-width:6px;}.cls-6{stroke:#e6e6e6;}.cls-7{fill:#fff;}</style>
    <style
       id="style1929">.cls-1{fill:#ccc;}.cls-2{fill:#fff;}</style>
    <style
       id="style2035">.cls-1{fill:#ccc;}.cls-2{fill:#fff;}</style>
    <style
       id="style2222">
      .wiki-logo--cls-1 {
        fill: #fff;
      }
    </style>
    <style
       id="style2649">.cls-1{fill:#fff;}</style>
  </defs>
  <metadata
     id="metadata5">
    <rdf:RDF>
      <cc:Work
         rdf:about="">
        <dc:format>image/svg+xml</dc:format>
        <dc:type
           rdf:resource="http://purl.org/dc/dcmitype/StillImage" />
        <dc:title></dc:title>
      </cc:Work>
    </rdf:RDF>
  </metadata>
  <g
     transform="translate(-0.24684723,-0.30185726)"
     id="layer1">
    <g
       id="flowRoot10"
       style="font-style:normal;font-weight:normal;font-size:40px;line-height:1.25;font-family:sans-serif;letter-spacing:0px;word-spacing:0px;fill:#000000;fill-opacity:1;stroke:none"
       transform="matrix(0.7259504,0,0,0.7259504,-46.995424,-198.78876)"
       aria-label="BRiD">
      <path
         id="path18"
         style="font-style:normal;font-variant:normal;font-weight:bold;font-stretch:normal;font-family:Roboto;-inkscape-font-specification:'Roboto Bold';fill:#ffffff"
         d="m 93.966797,365.0152 v -28.4375 h 9.960933 q 5.17579,0 7.85157,1.99218 2.67578,1.97266 2.67578,5.80079 0,2.08984 -1.07422,3.6914 -1.07422,1.58203 -2.98828,2.32422 2.1875,0.54688 3.4375,2.20703 1.26953,1.66016 1.26953,4.0625 0,4.10156 -2.61719,6.21094 -2.61719,2.10937 -7.46094,2.14844 z m 5.859375,-12.38282 v 7.67579 h 5.019528 q 2.07032,0 3.22266,-0.97657 1.17187,-0.99609 1.17187,-2.73437 0,-3.90625 -4.04296,-3.96485 z m 0,-4.14062 h 4.335938 q 4.43359,-0.0781 4.43359,-3.53516 0,-1.93359 -1.13281,-2.77343 -1.11328,-0.85938 -3.53516,-0.85938 h -4.101558 z" />
      <path
         id="path20"
         style="font-style:normal;font-variant:normal;font-weight:bold;font-stretch:normal;font-family:Roboto;-inkscape-font-specification:'Roboto Bold';fill:#ffffff"
         d="m 130.04102,354.60504 h -4.66797 v 10.41016 h -5.85938 v -28.4375 h 10.56641 q 5.03906,0 7.77344,2.24609 2.73437,2.24609 2.73437,6.34766 0,2.91015 -1.26953,4.86328 -1.25,1.93359 -3.80859,3.08594 l 6.15234,11.62109 v 0.27344 h -6.28906 z m -4.66797,-4.74609 h 4.72656 q 2.20703,0 3.41797,-1.11328 1.21094,-1.13282 1.21094,-3.10547 0,-2.01172 -1.15235,-3.16407 -1.13281,-1.15234 -3.49609,-1.15234 h -4.70703 z" />
      <path
         id="path22"
         transform="matrix(0.14037869,0,0,0.14037869,81.43065,288.99356)"
         d="m 472.89062,331.31836 c -6.95661,0 -12.47539,1.9461 -16.55664,5.8418 -3.98845,3.8957 -5.98242,8.8596 -5.98242,14.88867 0,6.12187 2.03985,11.12969 6.1211,15.02539 4.17394,3.8957 9.64685,5.84375 16.41796,5.84375 6.77112,0 12.19806,-1.94805 16.2793,-5.84375 4.174,-3.8957 6.25977,-8.90352 6.25977,-15.02539 0,-6.02907 -2.03985,-10.99297 -6.1211,-14.88867 -4.08119,-3.8957 -9.55406,-5.8418 -16.41797,-5.8418 z m -20.17382,59.6875 v 150.54102 h 15.48828 v -71.42774 h 9.59765 v 71.42774 h 15.26172 V 391.00586 Z"
         style="font-style:normal;font-variant:normal;font-weight:bold;font-stretch:normal;font-family:Roboto;-inkscape-font-specification:'Roboto Bold';fill:#ffffff;stroke-width:7.12359" />
      <path
         id="path24"
         style="font-style:normal;font-variant:normal;font-weight:bold;font-stretch:normal;font-family:Roboto;-inkscape-font-specification:'Roboto Bold';fill:#ffffff"
         d="m 155.68555,365.0152 v -28.4375 h 8.75 q 3.75,0 6.69922,1.69922 2.96875,1.67968 4.6289,4.80468 1.66016,3.10547 1.66016,7.07032 v 1.30859 q 0,3.96484 -1.64063,7.05078 -1.62109,3.08594 -4.58984,4.78516 -2.96875,1.69922 -6.69922,1.71875 z m 5.85937,-23.69141 v 18.98438 h 2.83203 q 3.4375,0 5.25391,-2.2461 1.81641,-2.24609 1.85547,-6.42578 v -1.50391 q 0,-4.33593 -1.79688,-6.5625 -1.79687,-2.24609 -5.2539,-2.24609 z" />
    </g>
    <g
       transform="matrix(0.26458333,0,0,0.26458333,128.36542,35.131076)"
       id="g10">
      <path
         style="opacity:0.3;isolation:isolate;fill:none;stroke:#000000;stroke-width:1.5px"
         d="m 502.09,1269.17 c 0,0 50.16,60.16 390,60.16 308.62,0 369.74,-58 369.74,-58"
         class="cls-6"
         id="path61736" />
      <g
         id="g62265">
        <path
           style="opacity:0.05;isolation:isolate;fill:none;stroke:#ffffff;stroke-width:1.6px"
           d="m 1585.15,619.59 c 0,0 84.34,75.6 199.7,86.09"
           class="cls-7"
           id="path62048-8-5" />
        <path
           style="opacity:0.2;isolation:isolate;fill:none;stroke:#000000;stroke-width:1.2px"
           d="m 1585.15,617 c 0,0 84.34,75.6 199.7,86.09"
           class="cls-12"
           id="path62048-82" />
        <path
           style="opacity:0.05;isolation:isolate;fill:none;stroke:#ffffff;stroke-width:1.6px"
           d="m 2800.66,619.59 c 0,0 -84.34,75.6 -199.7,86.09"
           class="cls-7"
           id="path62048-8-1-3" />
        <path
           style="opacity:0.2;isolation:isolate;fill:none;stroke:#000000;stroke-width:1.2px"
           d="m 2800.66,617 c 0,0 -84.34,75.6 -199.7,86.09"
           class="cls-12"
           id="path62048-1-0" />
      </g>
      <path
         style="opacity:0.05;isolation:isolate;fill:none;stroke:#ffffff;stroke-width:1.2px"
         d="m 502.09,1271.43 c 0,0 50.16,60.15 390,60.15 308.62,0 369.74,-58 369.74,-58"
         class="cls-15"
         id="path61736-5" />
    </g>
    <g
       transform="matrix(0.52783533,0,0,0.52783533,-116.3922,26.94906)"
       id="g1556">
      <polygon
         class="cls-24"
         points="980.39,710.5 980.39,718.43 941.01,718.43 937.61,708.53 "
         id="polygon5007"
         style="fill:#f2f2f0"
         transform="matrix(0.26458333,0,0,0.26458333,128.36542,35.131076)" />
      <polygon
         class="cls-24"
         points="950.09,791.25 971.45,786.79 936.36,722.2 880.34,565.03 896.83,452.01 890.08,449.75 874.84,563.63 920.87,721.5 "
         id="polygon5009"
         style="fill:#f2f2f0"
         transform="matrix(0.26458333,0,0,0.26458333,128.36542,35.131076)" />
      <polygon
         class="cls-24"
         points="838.91,706.5 851.64,705.77 859.12,591.98 "
         id="polygon5011"
         style="fill:#f2f2f0"
         transform="matrix(0.26458333,0,0,0.26458333,128.36542,35.131076)" />
      <path
         class="cls-24"
         d="m 338.70917,223.88747 c 0,0 2.73843,2.55058 3.81264,3.12737 1.07421,0.5768 4.01109,2.00555 4.01109,2.00555 l 4.1222,-1.07421 c 0,0 2.95275,-1.42875 3.89732,-1.71715 0.94456,-0.28839 4.04283,-0.86519 4.7625,-0.97896 0.71966,-0.11377 4.10898,-0.72231 4.10898,-0.72231 l -0.39159,-1.54252 z"
         id="path5013"
         style="fill:#f2f2f0;stroke-width:0.264583" />
      <path
         class="cls-25"
         d="m 360.1166,157.15955 2.32569,-3.03212 -4.0296,30.13075 12.17083,41.76977 7.73113,18.45469 h -14.52563 l 2.30717,-4.67519 -3.74121,-2.30717 -11.96975,0.49742 -3.43958,2.43152 1.37054,3.80471 h -8.33702 l 3.32052,-10.08592 3.04271,0.52917 -0.15082,1.43933 20.61634,-1.76742 -0.58209,-4.72545 c 0,0 -1.26735,-1.12184 -3.51366,-1.22502 -2.24632,-0.10319 -12.15496,1.76477 -12.15496,1.76477 l -0.35454,-0.80963 c 0,0 3.88673,-2.07962 7.17021,-2.61937 3.28347,-0.53975 7.89516,-1.3679 7.89516,-1.3679 l -8.91381,-36.26644 -1.397,0.94192 -6.23623,32.01458 -3.74121,0.19579 7.874,-34.44345 c 0,0 -3.74121,-22.50282 -3.6486,-22.97113 0.0926,-0.46831 2.30716,0.68792 2.30716,0.68792 l 3.30465,19.39925 1.41288,-0.74877 1.54781,-10.84792 -4.40796,3.11679 -0.42863,-2.52677 5.3049,-3.3946 z"
         id="path5015"
         style="fill:#ffffff;stroke-width:0.264583" />
      <path
         class="cls-25"
         d="m 351.8034,234.66924 3.89202,-0.64294 c 0,0 -7.79727,-1.38906 -12.73704,-4.7625 -4.93978,-3.37343 -6.31032,-5.02708 -7.85019,-6.28385 -1.53988,-1.25677 -3.80736,-3.05065 -3.80736,-3.05065 l -25.7757,3.2094 c 0,0 14.31925,6.20183 22.88645,7.87135 8.56721,1.66952 23.39182,3.65919 23.39182,3.65919 z"
         id="path5017"
         style="fill:#ffffff;stroke-width:0.264583" />
      <polygon
         class="cls-26"
         points="728.19,513.07 689.75,535.26 689.75,579.64 728.19,601.84 766.63,579.64 766.63,535.26 "
         id="polygon5019"
         style="fill:none;stroke:#f2f2f0;stroke-width:6px;stroke-miterlimit:10"
         transform="matrix(0.26458333,0,0,0.26458333,128.36542,35.131076)" />
      <polygon
         class="cls-26"
         points="980.39,587.21 951.57,603.85 951.57,637.14 980.39,653.78 1009.22,637.14 1009.22,603.85 "
         id="polygon5021"
         style="fill:none;stroke:#f2f2f0;stroke-width:6px;stroke-miterlimit:10"
         transform="matrix(0.26458333,0,0,0.26458333,128.36542,35.131076)" />
      <polygon
         class="cls-26"
         points="1039.29,497.75 1020.07,508.85 1020.07,531.04 1039.29,542.14 1058.51,531.04 1058.51,508.85 "
         id="polygon5023"
         style="fill:none;stroke:#f2f2f0;stroke-width:6px;stroke-miterlimit:10"
         transform="matrix(0.26458333,0,0,0.26458333,128.36542,35.131076)" />
      <polygon
         class="cls-26"
         points="1074.22,598.3 1055.01,609.4 1055.01,631.59 1074.22,642.69 1093.44,631.59 1093.44,609.4 "
         id="polygon5025"
         style="fill:none;stroke:#f2f2f0;stroke-width:6px;stroke-miterlimit:10"
         transform="matrix(0.26458333,0,0,0.26458333,128.36542,35.131076)" />
      <path
         class="cls-27"
         d="m 325.988,173.36793 6.3844,-7.46654 c 0,0 0.76993,-1.00542 2.7596,-1.00542 a 5.4557083,5.4557083 0 0 1 3.37079,1.25148 l 8.93763,6.54844"
         id="path5027"
         style="fill:none;stroke:#f2f2f0;stroke-width:1.5875px;stroke-linecap:round;stroke-miterlimit:10" />
      <path
         class="cls-27"
         d="m 372.39675,209.92398 3.48373,3.16584 c 0.60538,0.36014 1.28498,0.57733 1.98702,0.635 1.09273,0.0661 2.18281,-1.02658 2.18281,-1.02658 l 4.49792,-6.45319"
         id="path5029"
         style="fill:none;stroke:#f2f2f0;stroke-width:1.5875px;stroke-linecap:round;stroke-miterlimit:10" />
      <line
         class="cls-27"
         x1="395.55225"
         y1="199.65694"
         x2="407.50348"
         y2="199.65694"
         id="line5031"
         style="fill:none;stroke:#f2f2f0;stroke-width:1.5875px;stroke-linecap:round;stroke-miterlimit:10" />
      <line
         class="cls-26"
         x1="391.81897"
         y1="192.83861"
         x2="400.87036"
         y2="177.02446"
         id="line5033"
         style="fill:none;stroke:#f2f2f0;stroke-width:1.5875px;stroke-miterlimit:10" />
    </g>
    <g
       transform="matrix(0.05183562,0,0,0.05183562,182.90489,61.332168)"
       id="g1624">
      <path
         class="cls-1"
         d="M 842.29,735.06 195.53,21.87 l -0.6,150.76 a 101.71,101.71 0 1 1 -0.8,197.88 l -0.37,93.29 h 239.12 v 271.26 z"
         id="path1609" />
      <path
         style="opacity:0.491727"
         class="cls-2"
         d="m 195,172.59 a 101.75,101.75 0 0 0 -0.79,197.94 z"
         id="path1611" />
      <polygon
         style="opacity:0.491727"
         class="cls-2"
         points="37.3,859.38 432.88,859.38 432.88,735.06 192.67,735.06 193.76,463.8 37.3,463.8 "
         id="polygon1613" />
    </g>
    <g
       style="opacity:1;fill:#ffffff;fill-opacity:1"
       transform="matrix(0.13801806,0,0,0.13801806,133.77952,136.39529)"
       id="g1767">
      <polygon
         style="opacity:1;fill:#ffffff;fill-opacity:1"
         class="cls-2"
         points="244.12,25.87 238.47,50.82 260.46,37.76 "
         id="polygon1746" />
      <polygon
         style="fill:#ffffff;fill-opacity:1"
         class="cls-1"
         points="260.17,106.46 247.93,108.73 258,116.05 "
         id="polygon1748" />
      <polygon
         style="fill:#ffffff;fill-opacity:1"
         class="cls-1"
         points="190.89,36.62 201.15,50.21 203.95,33.42 "
         id="polygon1750" />
      <polygon
         style="fill:#ffffff;fill-opacity:1"
         class="cls-1"
         points="245.31,76.31 239.1,84 248.95,83.21 "
         id="polygon1752" />
      <polygon
         style="opacity:1;fill:#ffffff;fill-opacity:1"
         class="cls-3"
         points="171.78,81.17 134.3,81.17 105.52,239.08 147.47,239.08 104.79,410.91 258.96,183.41 191.54,183.41 207.99,125.02 191.94,122.61 184.03,128.13 180.71,113.46 167.73,120.14 172.35,103.69 164.26,102.66 "
         id="polygon1754" />
    </g>
    <path
       d="m 338.9801,213.23113 a 20.693907,20.693907 0 0 0 -17.91255,10.28432 20.693907,20.693907 0 0 0 7.47597,28.29437 20.693907,20.693907 0 0 0 28.29486,-7.47549 20.693907,20.693907 0 0 0 -7.47597,-28.29485 20.693907,20.693907 0 0 0 -10.38231,-2.80835 z m -2.65417,8.29056 5.7094,0.0563 -0.20413,20.01774 7.89384,0.0815 -0.0461,4.6508 -21.49804,-0.21757 0.0476,-4.65273 7.8948,0.0797 z"
       style="fill:#ffffff;stroke-width:0.245917"
       id="circle34" />
    <g
       style="fill:#ffffff;fill-opacity:1;stroke:none"
       transform="matrix(0.26458333,0,0,0.26458333,319.12982,52.526851)"
       id="Modelo_2.1"
       data-name="Modelo 2.1">
      <path
         style="fill:#ffffff;fill-opacity:1;stroke:none"
         class="cls-1"
         d="M 115.12,46.55 A 261.93,261.93 0 0 0 79.62,58.18 C 32.32,77.4 -1.18,106 2.3,123.29 l 1.45,-0.59 c -0.09,-0.19 -0.18,-0.38 -0.26,-0.58 -5.14,-12.63 30,-38.84 78.5,-58.54 A 342.22,342.22 0 0 1 115.12,52 Z"
         id="path2041" />
      <path
         style="fill:#ffffff;fill-opacity:1;stroke:none"
         class="cls-1"
         d="m 118.1,45.83 v 5.32 c 32.33,-9 57.17,-9.73 61,-0.37 a 5.76,5.76 0 0 1 0.35,1.16 l 1.33,-0.53 C 174.47,40.17 149.54,38.53 118.1,45.83 Z"
         id="path2043" />
      <path
         style="opacity:1;fill:#ffffff;fill-opacity:1;stroke:none"
         class="cls-2"
         d="m 108.86,120.57 c -1.18,8.57 -9.76,15.07 -18.66,15.07 a 21.83,21.83 0 0 1 -13.55,-5.13 c -4.49,1.29 -7.36,2 -11.62,3 v 28.45 h 50.34 v -44.24 c -2.53,1.15 -3.88,1.75 -6.51,2.85 z"
         id="path2045" />
      <path
         style="opacity:1;fill:#ffffff;fill-opacity:1;stroke:none"
         class="cls-2"
         d="m 70.11,117.61 a 23.86,23.86 0 0 1 0.11,-4.91 c 1,-11.34 10,-17.19 19.73,-17.3 7.52,-0.08 12.9,2.86 16.35,8.42 3.39,-1.42 5.59,-2.42 8.82,-3.9 V 11.42 H 64.79 v 107.73 c 2.57,-0.72 2.67,-0.72 5.32,-1.54 z m 19.77,-96.3 a 12.4,12.4 0 1 1 -12.4,12.4 12.4,12.4 0 0 1 12.4,-12.4 z"
         id="path2047" />
      <circle
         style="opacity:1;fill:#ffffff;fill-opacity:1;stroke:none"
         class="cls-2"
         cx="160.69"
         cy="79.330002"
         r="12.74"
         id="circle2049" />
      <circle
         style="fill:#ffffff;fill-opacity:1;stroke:none"
         class="cls-1"
         cx="13.32"
         cy="102.02"
         r="7.0799999"
         id="circle2051" />
      <circle
         style="fill:#ffffff;fill-opacity:1;stroke:none"
         class="cls-1"
         cx="137.17"
         cy="43.900002"
         r="7.0799999"
         id="circle2053" />
      <path
         style="opacity:1;fill:#ffffff;fill-opacity:1;stroke:none"
         class="cls-2"
         d="m 180.87,51.62 c -0.32,-0.78 -2.26,-1.8 -2.26,-1.8 4.67,12.28 -27.6,37.25 -73.53,56.63 a 17.6,17.6 0 0 0 -32.57,11.93 c -36.22,11.21 -65.16,13.05 -69.28,2.93 0,-0.14 -1,-2.07 -1.09,-2.21 a 15.72,15.72 0 0 0 0.16,4.13 c 5.63,13.86 37.45,15.84 75.5,4.88 a 17.6,17.6 0 0 0 29.47,-10.42 c 47.85,-20.01 80.39,-49.37 73.6,-66.07 z m -87.82,72.21 -2,-3.57 a 13.61,13.61 0 0 1 -0.63,-1.35 9.65,9.65 0 0 1 -0.46,-1.34 8.82,8.82 0 0 1 -0.46,1.34 9.52,9.52 0 0 1 -0.75,1.38 l -2.15,3.54 h -6 l 6.15,-8.83 -5.87,-8.59 h 6.34 l 1.72,3.24 a 11.37,11.37 0 0 1 0.58,1.28 c 0.17,0.44 0.33,0.9 0.47,1.39 a 12.11,12.11 0 0 1 0.48,-1.35 11.76,11.76 0 0 1 0.7,-1.36 l 1.85,-3.2 h 6 l -6,8.49 6.3,9 z"
         id="path2055" />
      <polygon
         style="opacity:0.505435;fill:#ffffff;fill-opacity:1;stroke:none"
         class="cls-2"
         points="114.69,19.58 118.1,19.58 118.1,98.34 121.79,96.42 121.79,15.81 114.69,15.81 "
         id="polygon2057" />
      <polygon
         style="opacity:0.505435;fill:#ffffff;fill-opacity:1;stroke:none"
         class="cls-2"
         points="121.65,161.91 118.1,161.91 118.1,116.43 121.65,114.81 "
         id="polygon2059" />
    </g>
    <g
       transform="matrix(0.0396171,0,0,0.0396171,244.34123,103.94273)"
       id="g2245">
      <path
         class="wiki-logo--cls-1"
         d="m 1319.26,1283 c 0,-17 -12.09,-23.86 -26.88,-15.32 v 0 c -14.79,8.54 -26.75,29.25 -26.7,46.26 0,9.58 3.88,15.91 9.88,18.1 1.71,0.62 2.51,2.71 2.28,5.37 l -6,67.38 41.74,-24.1 -6.35,-60.27 a 13,13 0 0 1 2.25,-8 c 6,-9.09 9.8,-19.85 9.78,-29.42 z"
         id="path2228" />
      <path
         class="wiki-logo--cls-1"
         d="m 722.19,943 a 85.07,85.07 0 0 1 42.38,-73.44 L 1267.85,578 l -2.89,-1.66 -7.82,-4.52 -26.28,-15.17 -471.54,274 c -15.82,9.2 -41.55,9.2 -57.48,0 L 574,756.82 c -15.92,-9.2 -16,-24.1 -0.19,-33.3 l 471.54,-274 -1.1,-0.63 a 73.13,73.13 0 0 0 -73.12,0 L 505.87,717.45 A 73.12,73.12 0 0 0 469.3,780.78 V 1318 a 73.12,73.12 0 0 0 36.57,63.33 l 171.32,98.92 a 30,30 0 0 0 45,-26 z m -45.1,49.47 c 0,10.79 -7.67,15.14 -17.06,9.72 L 529.9,927 c -9.39,-5.42 -17,-18.57 -16.95,-29.36 l 0.16,-54.37 c 0,-10.8 7.67,-15.15 17.06,-9.72 l 130.12,75.12 c 9.39,5.43 17,18.56 17,29.36 z"
         id="path2230" />
      <path
         class="wiki-logo--cls-1"
         d="m 1509.41,717.45 -0.07,-0.05 -485.14,281.94 c -15.83,9.2 -41.56,9.19 -57.49,0 L 838.82,925.5 c -15.92,-9.19 -16,-24.1 -0.18,-33.3 L 1323.78,610.27 1289.54,590.51 775.45,888.33 A 63.31,63.31 0 0 0 743.91,943 v 546.87 a 50,50 0 0 0 25,43.3 l 202.17,116.72 a 73.08,73.08 0 0 0 73.12,0 L 1509.41,1381.3 A 73.11,73.11 0 0 0 1546,1318 V 780.74 a 73.05,73.05 0 0 0 -36.59,-63.29 z M 953.8,1156.6 c 0,10.79 -7.67,15.14 -17.06,9.72 l -130.13,-75.13 c -9.39,-5.42 -17,-18.57 -17,-29.36 l 0.15,-54.37 c 0,-10.8 7.67,-15.15 17.06,-9.72 L 937,1072.86 c 9.39,5.43 17,18.56 17,29.36 z m 196.2,381.25 -0.71,-250.3 19,-11 -0.51,-180.08 c -0.1,-37.81 26.64,-84.13 59.54,-103.13 l 131.59,-76 c 32.89,-19 59.82,-3.66 59.93,34.15 l 0.35,122.94 -56.71,32.74 -0.35,-122.94 c 0,-2 -1.3,-2.74 -3,-1.74 l -131.59,76 a 6.44,6.44 0 0 0 -3,5.24 l 0.51,180.08 210.1,-121.3 0.71,250.3 z"
         id="path2232" />
    </g>
    <g
       transform="matrix(0.48130472,0,0,-0.48130472,143.93003,563.30196)"
       id="g2411">
    
    
    
    
    
    
    
    <g
   transform="translate(44.949607,-34.005247)"
   id="g2409">
      <g
   clip-path="url(#clipPath136-3)"
   id="g2407">
        <g
   transform="translate(144.5029,714.9261)"
   id="g2373">
          <path
   style="fill:#ffffff;fill-opacity:1;fill-rule:nonzero;stroke:none"
   d="m 0,0 c 0.84,0.36 7.68,8.64 8.52,15.72 1.273,10.731 -10.08,34.2 -25.56,34.2 -15.48,0 -28.8,-26.76 -27.6,-34.08 C -43.44,8.52 -35.52,0 -35.52,0"
   id="path2371" />

        </g>

        <g
   transform="translate(99.8726,730.4657)"
   id="g2377">
          <path
   style="fill:#444444;fill-opacity:1;fill-rule:nonzero;stroke:none"
   d="m 0,0 c 0,0 11.922,3.135 27.031,3.135 15.109,0 26.114,-3.085 26.114,-3.085 0,0 -0.442,-4.729 -3.13,-8.81 -2.311,-3.511 -4.32,-6.45 -5.175,-7.005 -0.855,-0.555 -35.741,0.049 -35.741,0.049 0,0 -3.773,4.354 -5.49,7.106 C 0.347,-3.378 0,0 0,0"
   id="path2375" />

        </g>

        <g
   transform="translate(112.2173,733.454)"
   id="g2381">
          <path
   style="fill:#ffffff;fill-opacity:1;fill-rule:nonzero;stroke:none"
   d="m 0,0 c 0,0 1.146,-5.433 4.445,-10.233 3.301,-4.8 8.722,-6.18 9.792,-6.18 1.069,0 7.728,1.094 10.728,5.617 3,4.523 4.921,10.523 4.921,10.523 0,0 -8.183,1.14 -15.649,1.14 C 6.77,0.867 0,0 0,0"
   id="path2379" />

        </g>

        <g
   transform="translate(108.7803,714.9261)"
   id="g2385">
          <path
   transform="matrix(0.54972104,0,0,-0.54972104,-452.25842,488.81649)"
   d="M 822.70508 889.20898 L 808.17578 893.90234 C 808.17578 893.90234 778.21316 942.03484 776.41406 951.20312 C 775.81376 954.25922 801.62695 967.24805 801.62695 967.24805 L 802.00781 967.24805 C 801.99983 956.42992 801.97182 916.96486 802.01172 916.42383 C 802.05902 915.80897 802.15081 915.81036 802.8457 915.22461 C 803.53878 914.63886 804.33398 914.61328 804.33398 914.61328 L 905.14453 914.61328 C 906.20871 914.61328 906.49586 914.89881 907.31445 915.51367 C 908.13305 916.12671 908.13281 917.31445 908.13281 917.31445 L 908.13281 967.19336 C 908.41047 967.02139 933.62027 951.40511 934.07617 950.38477 C 934.58006 949.25146 907.06184 896.84768 902.14844 894.06445 C 897.23867 891.28122 887.68945 889.20898 887.68945 889.20898 L 822.70508 889.20898 z "
   style="fill:#444444;fill-opacity:1;fill-rule:nonzero;stroke:none;stroke-width:1.8191"
   id="path2383" />

        </g>

        <g
   transform="translate(98.7227,666.9857)"
   id="g2389">
          <path
   transform="matrix(0.54972104,0,0,-0.54972104,-442.20082,536.75689)"
   d="M 804.41016 914.61328 C 804.41016 914.61328 803.613 914.63886 802.91992 915.22461 C 802.22502 915.81036 802.13323 915.80897 802.08594 916.42383 C 802.04046 917.0405 802.08594 974.28906 802.08594 974.28906 C 802.08594 974.28906 802.38947 975.3249 802.77148 975.65234 C 803.1535 975.97978 804.41016 976.41602 804.41016 976.41602 L 904.49609 976.41602 C 904.49609 976.41602 906.73322 975.97967 907.11523 975.59766 C 907.49725 975.21564 908.20703 974.45174 908.20703 973.79688 L 908.20703 917.31445 C 908.20703 917.31445 908.20727 916.12671 907.38867 915.51367 C 906.57007 914.89881 906.28293 914.61328 905.21875 914.61328 L 804.41016 914.61328 z M 856.24805 925.89258 C 856.36777 925.88962 856.53682 925.89648 856.77148 925.89648 C 866.49096 925.89467 876.21021 925.89467 885.92969 925.89648 C 886.85015 925.89648 886.7168 925.80644 886.7168 926.70508 C 886.71862 939.628 886.71862 952.54974 886.7168 965.47266 C 886.7168 966.33855 886.84334 966.24232 885.96289 966.24414 C 876.22159 966.27143 866.47959 966.29666 856.73828 966.32031 C 855.88512 966.32213 855.96639 966.43217 855.96094 965.56445 C 855.95366 964.88957 855.94269 964.21395 855.93359 963.53906 C 849.04646 963.53906 842.16043 963.53724 835.27148 963.53906 C 834.44197 963.53906 833.60523 963.52763 832.80664 963.29297 C 829.40673 962.2961 827.21539 960.1348 826.48047 956.60938 C 826.38042 956.13641 826.38281 955.65421 826.38281 955.17578 C 826.38099 949.09452 826.42722 943.01291 826.36719 936.93164 C 826.32171 932.40207 830.15773 928.99447 833.7832 928.6543 C 834.28346 928.60882 834.781 928.57227 835.28125 928.57227 C 839.57616 928.57408 843.87098 928.57422 848.16406 928.57422 C 848.25138 928.57422 848.33846 928.5724 848.42578 928.57422 C 848.90421 928.58331 848.91224 928.58218 848.91406 929.08789 C 848.91588 931.35631 848.9142 933.62402 848.91602 935.89062 C 848.91602 936.50184 848.96489 936.48242 848.30273 936.48242 C 844.05331 936.4806 839.80203 936.48775 835.55078 936.48047 C 834.36291 936.47865 834.52148 936.54995 834.52148 937.51953 L 834.52148 954.58594 C 834.52148 954.73874 834.51785 954.89016 834.52148 955.04297 C 834.53786 955.57233 834.58944 955.6349 835.14062 955.63672 C 836.66685 955.64218 838.19239 955.63867 839.7168 955.63867 L 855.93359 955.63867 C 855.94269 955.35489 855.95898 955.07284 855.95898 954.78906 C 855.9608 945.41886 855.95925 936.04976 855.96289 926.67773 C 855.96289 926.00376 855.88889 925.90145 856.24805 925.89258 z M 868.18359 942.20508 C 867.56686 942.18657 866.93872 942.32348 866.35547 942.625 C 864.79286 943.43086 863.97935 945.2456 864.44141 946.93555 C 864.84343 948.41448 865.80871 949.36512 867.29492 949.68164 C 868.72838 949.98725 869.97621 949.54541 870.92578 948.41211 C 871.17864 948.11014 871.41163 947.98799 871.80273 948.03711 C 872.79415 948.16808 873.79219 948.26168 874.78906 948.36719 C 876.28255 948.52363 877.77995 948.6704 879.27344 948.83594 C 879.58814 948.8705 879.69686 948.78083 879.69141 948.45703 C 879.67503 947.54202 879.68555 946.62777 879.68555 945.71094 L 879.68555 943.14062 C 879.18711 943.18974 878.77662 943.22405 878.36914 943.26953 C 876.22624 943.50783 874.08263 943.73232 871.94336 943.99609 C 871.47585 944.05249 871.20094 943.92046 870.90625 943.55664 C 870.20817 942.69939 869.21148 942.23592 868.18359 942.20508 z "
   style="fill:#ffffff;fill-opacity:1;fill-rule:nonzero;stroke:none;stroke-width:1.8191"
   id="path2387" />

        </g>

        <g
   transform="translate(98.7227,666.9857)"
   id="g2393">
          <path
   style="fill:#ffffff;fill-opacity:1;fill-rule:nonzero;stroke:none"
   d="m 0,0 v -1.068 h -0.945 c 0,0 -0.54,-0.304 -0.54,-1.069 0,-0.765 0.495,-0.957 0.495,-0.957 H 0 l 56.453,0.046 c 0,0 0.821,0.146 0.821,1.034 0,0.889 -0.889,0.957 -0.889,0.957 l -1.406,0.022 V 0 Z"
   id="path2391" />

        </g>

        <g
   transform="translate(112.2651,732.6722)"
   id="g2397">
          <path
   style="fill:#444444;fill-opacity:1;fill-rule:nonzero;stroke:none"
   d="m 0,0 c 0,0 0.68,-3.165 1.045,-3.406 0.366,-0.241 6.512,0.315 8.049,0.945 1.538,0.629 4.245,1.935 5.922,1.935 1.675,0 4.84,-1.755 5.971,-2.115 1.131,-0.36 7.531,-0.823 7.531,-0.823 l 1.32,3.402 c 0,0 -8.015,0.991 -15.08,0.991 C 7.693,0.929 0,0 0,0"
   id="path2395" />

        </g>

        <g
   transform="translate(140.104,685.2787)"
   id="g2401">
          
        </g>

        <g
   transform="translate(127.0469,678.4081)"
   id="g2405">
          
        </g>

      </g>

    </g>

  </g>
    <g
       transform="matrix(0.26458333,0,0,0.26458333,-307.61926,380.02065)"
       id="g2763">
      <polygon
         class="cls-1"
         points=""
         id="polygon2683" />
      <g
         transform="matrix(0.4281585,0,0,0.4281585,1272.2155,-681.8339)"
         id="g2776">
        <path
           id="path2673"
           d="m 424.25,231.5 c 0,0 -23.07,-28.5 -29.4,-51.11 -6.33,-22.61 -9.5,-28.5 -10,-55.19 -0.82,-48.39 19.45,-76 16.73,-76 -2.72,0 -50.18,45 -55.18,86.85 -5,41.61 -2.72,58.35 5,89.11 7.72,30.76 39.36,25.33 48.85,22.61 4.55,-1.29 10.9,-5 16.29,-8.59 a 25.16,25.16 0 0 0 7.71,-7.68 z"
           class="cls-1" />
        <rect
           id="rect2675"
           height="36.639999"
           width="36.639999"
           y="279.73999"
           x="196.38"
           class="cls-1" />
        <rect
           id="rect2677"
           height="26.690001"
           width="26.690001"
           y="336.67001"
           x="144.87"
           class="cls-1" />
        <rect
           id="rect2679"
           height="26.690001"
           width="26.690001"
           y="192.33"
           x="182.92"
           class="cls-1" />
        <path
           id="path2681"
           d="m 517,203 c -2.27,-1.35 -14.48,-17.64 -26.69,-17.19 -12.21,0.45 -18.55,1.81 -31.66,19 -13.11,17.19 -35.31,65.59 -88.65,52.47 -33.36,-8.2 -55.77,-19.58 -71.52,-30.6 l -0.21,-0.15 a 157.21,157.21 0 0 1 -16.17,-13 v 26.69 h -26.72 v -26.73 h 26.69 c -2.07,-1.91 -4,-3.76 -5.73,-5.51 -14.93,-14.93 -40.16,-64.08 -46.59,-84.13 -6.43,-20.05 -8.72,-31 -9.95,-27.6 -4.75,13 -3.39,34.43 -0.82,75.18 h 19.77 v 19.9 h -18.49 c 2.9,34.76 9.66,71.2 24.3,94.39 h 17 v 19.84 c 39.54,38.08 80.67,38.16 83.57,43.54 3.17,5.88 -24.42,47.95 -51.11,53.38 -26.69,5.43 -24,4.07 -34.38,4.07 -10.38,0 -43.42,-16.28 -44.78,-12.66 -1.36,3.62 8.59,37.09 20.81,50.66 12.22,13.57 22.61,20.35 31.21,21.26 a 13.57,13.57 0 0 0 12.66,-5.43 c 0,0 7.24,-22.62 24.43,-31.67 17.19,-9.05 62,-3.16 108.11,-24.87 46.11,-21.71 65.13,-57.45 68.75,-81.88 3.62,-24.43 2.26,-47.94 7.69,-59.25 0,0 9.5,-21.71 19.45,-32.57 9.95,-10.86 26.69,-24.42 29.4,-25.78 2.71,-1.36 -18.13,0 -20.37,-1.36 z M 332.43,325.58 H 287.65 V 280.8 h 44.78 z"
           class="cls-1" />
        <rect
           id="rect2685"
           height="14.48"
           width="14.48"
           y="283.57999"
           x="82.57"
           class="cls-1" />
        <rect
           id="rect2687"
           height="14.48"
           width="14.48"
           y="165.92999"
           x="113.67"
           class="cls-1" />
        <rect
           id="rect2689"
           height="14.48"
           width="14.48"
           y="370.70001"
           x="85.900002"
           class="cls-1" />
        <rect
           id="rect2691"
           height="19.9"
           width="19.9"
           y="257.60999"
           x="137.36"
           class="cls-1" />
        <rect
           id="rect2693"
           height="19.9"
           width="19.9"
           y="127.72"
           x="178.10001"
           class="cls-1" />
        <rect
           id="rect2695"
           height="19.9"
           width="19.9"
           y="333.35001"
           x="248.09"
           class="cls-1" />
      </g>
    </g>
  </g>
</svg>
