<?xml version="1.0" encoding="UTF-8" standalone="no"?>
<svg xmlns:dc="http://purl.org/dc/elements/1.1/" xmlns:cc="http://creativecommons.org/ns#" xmlns:rdf="http://www.w3.org/1999/02/22-rdf-syntax-ns#" xmlns:svg="http://www.w3.org/2000/svg" xmlns="http://www.w3.org/2000/svg" id="svg4" version="1.1" viewBox="0 0 12.091 18.574746">
   <metadata id="metadata10">
      <rdf:RDF>
         <cc:Work rdf:about="">
            <dc:format>image/svg+xml</dc:format>
            <dc:type rdf:resource="http://purl.org/dc/dcmitype/StillImage" />
            <dc:title></dc:title>
         </cc:Work>
      </rdf:RDF>
   </metadata>
   <defs id="defs8" />
   <path style="fill:#ffffff" id="path2" fill-rule="evenodd" fill="#ffffff" d="m 9.1,9.1333333 c -0.034227,0.219241 -0.1668386,0.410791 -0.36,0.52 -0.192,0.124 -0.36,0.186 -0.53,0.248 -0.362,0.1249997 -0.743,0.2499997 -1.146,0.3949997 -0.425,0.145 -0.806,0.29 -1.146,0.395 -0.424,0.145 -0.827,0.27 -1.21,0.415 -0.2881528,0.123305 -0.558813,0.28402 -0.805,0.478 -0.228963,0.207439 -0.4287788,0.444931 -0.594,0.706 -0.17,0.29 -0.277,0.664 -0.277,1.1 0,0.873 0.212,1.537 0.637,1.952 0.424,0.437 1.21,0.644 2.375,0.644 1.188,0 1.994,-0.228 2.42,-0.685 0.423,-0.457 0.635,-1.1 0.635,-1.93 V 9.1333333 Z M 6.045,-0.06666667 c 2.08,0 3.607,0.395 4.582,1.20499997 0.976,0.79 1.464,1.806 1.464,3.01 V 14.408333 c 0,0.415 -0.084,0.872 -0.232,1.37 -0.15,0.5 -0.446,0.956 -0.913,1.37 -0.445,0.417 -1.06,0.77 -1.845,1.04 -0.785,0.27 -1.803,0.415 -3.055,0.415 -1.25,0 -2.27,-0.145 -3.054,-0.415 -0.784,-0.27 -1.4,-0.623 -1.845,-1.04 -0.41396937,-0.373054 -0.72756999,-0.844143 -0.912,-1.37 -0.15,-0.497 -0.235,-0.954 -0.235,-1.369 v -1.64 c 0,-0.873 0.233,-1.683 0.7,-2.39 0.467,-0.7259997 1.124,-1.2239997 1.973,-1.5359997 0.424,-0.145 0.912,-0.29 1.463,-0.477 0.552,-0.188 1.06,-0.375 1.57,-0.54 0.51,-0.167 0.955,-0.334 1.336,-0.48 0.2299233,-0.09199 0.4634444,-0.174727 0.7,-0.248 l 0.382,-0.187 c 0.15,-0.083 0.297,-0.208 0.446,-0.374 0.148,-0.165 0.275,-0.352 0.382,-0.56 0.1130517,-0.225235 0.1712999,-0.473989 0.17,-0.726 v -0.665 c 0.00157,-0.243726 -0.049603,-0.484907 -0.15,-0.707 -0.084,-0.25 -0.254,-0.478 -0.487,-0.685 -0.233,-0.208 -0.552,-0.374 -0.933,-0.5 -0.382,-0.123 -0.89,-0.186 -1.464,-0.186 -1.188,0 -1.973,0.23 -2.397,0.706 -0.36,0.416 -0.572,0.935 -0.614,1.516 0,0.125 -0.106,0.208 -0.234,0.208 l -2.587,0.042 c -0.12790912,5.6e-4 -0.23235431,-0.1021 -0.234,-0.23 v -0.6 c 0,-0.583 0.107,-1.123 0.34,-1.642 0.234,-0.52 0.595,-0.955 1.082,-1.33 0.488,-0.37299997 1.125,-0.68399997 1.888,-0.89199997 0.743,-0.25 1.655,-0.353 2.715,-0.353 z" />
</svg>
