<?xml version="1.0" encoding="UTF-8" standalone="no"?>
<svg xmlns:dc="http://purl.org/dc/elements/1.1/" xmlns:cc="http://creativecommons.org/ns#" xmlns:rdf="http://www.w3.org/1999/02/22-rdf-syntax-ns#" xmlns:svg="http://www.w3.org/2000/svg" xmlns="http://www.w3.org/2000/svg" viewBox="0 0 321.32493 211.44933" width="321.32492" xml:space="preserve" class="imesec-logo" version="1.1" id="svg36" height="211.44933">
     <metadata id="metadata42">
          <rdf:RDF>
               <cc:Work rdf:about="">
                    <dc:format>image/svg+xml</dc:format>
                    <dc:type rdf:resource="http://purl.org/dc/dcmitype/StillImage" />
                    <dc:title></dc:title>
               </cc:Work>
          </rdf:RDF>
     </metadata>
     <defs id="defs40" />
     <g transform="matrix(1.3333333,0,0,-1.3333333,-1331.8297,476.02345)" id="g34">
          <g id="g32">
               <g clip-path="url(#clipPath32)" id="g30">
                    <g transform="translate(732.6152,294.4687)" id="g16"></g>
                    <g transform="translate(921.5908,294.4687)" id="g20"></g>
                    <g transform="translate(1118.9893,240.4229)" id="g24" class="imesec-lock">
                         <path style="fill:#ffffff;fill-opacity:1;fill-rule:nonzero;stroke:none" d="m 0,0 h -86.969 c -0.961,0 -1.681,0.721 -1.681,1.682 v 73.021 c 0,0.961 0.72,1.682 1.681,1.682 h 59.374 v 31.467 h -59.374 c -18.256,0 -33.148,-14.893 -33.148,-33.149 V 1.682 c 0,-18.256 14.892,-33.149 33.148,-33.149 H 0 Z" id="path22" />
                    </g>
                    <g transform="translate(1209.625,266.1436)" id="g28" style="fill:#ffffff">
                         <path style="fill:#ffffff;fill-opacity:1;fill-rule:nonzero;stroke:none" d="m 0,0 -30.821,3.415 c -1.216,0.135 -2.45,-0.311 -3.226,-1.256 -2.724,-3.32 -6.85,-5.444 -11.481,-5.444 -8.21,0 -14.867,6.655 -14.867,14.865 v 10e-4 c 0,8.211 6.657,14.866 14.867,14.866 4.631,0 8.757,-2.124 11.481,-5.444 0.776,-0.946 2.01,-1.392 3.226,-1.257 L 0,23.161 Z M -90.636,-67.713 H 30.241 V 90.874 H -90.636 Z" id="path26" />
                    </g>
               </g>
          </g>
     </g>
</svg>
